<svg aria-hidden="true" style="width:0;height:0;position:absolute;overflow:hidden" xmlns="http://www.w3.org/2000/svg"><defs><symbol id="facebook" viewBox="0 0 32 32"><path d="M19 6h5V0h-5c-3.86 0-7 3.14-7 7v3H8v6h4v16h6V16h5l1-6h-6V7c0-.542.458-1 1-1z"/></symbol><symbol id="instagram" viewBox="0 0 32 32"><path d="M16 2.881c4.275 0 4.781.019 6.462.094 1.563.069 2.406.331 2.969.55a4.952 4.952 0 0 1 1.837 1.194 5.015 5.015 0 0 1 1.2 1.838c.219.563.481 1.412.55 2.969.075 1.688.094 2.194.094 6.463s-.019 4.781-.094 6.463c-.069 1.563-.331 2.406-.55 2.969a4.94 4.94 0 0 1-1.194 1.837 5.02 5.02 0 0 1-1.837 1.2c-.563.219-1.413.481-2.969.55-1.688.075-2.194.094-6.463.094s-4.781-.019-6.463-.094c-1.563-.069-2.406-.331-2.969-.55a4.952 4.952 0 0 1-1.838-1.194 5.02 5.02 0 0 1-1.2-1.837c-.219-.563-.481-1.413-.55-2.969-.075-1.688-.094-2.194-.094-6.463s.019-4.781.094-6.463c.069-1.563.331-2.406.55-2.969a4.964 4.964 0 0 1 1.194-1.838 5.015 5.015 0 0 1 1.838-1.2c.563-.219 1.412-.481 2.969-.55 1.681-.075 2.188-.094 6.463-.094zM16 0c-4.344 0-4.887.019-6.594.094-1.7.075-2.869.35-3.881.744-1.056.412-1.95.956-2.837 1.85a7.833 7.833 0 0 0-1.85 2.831C.444 6.538.169 7.7.094 9.4.019 11.113 0 11.656 0 16s.019 4.887.094 6.594c.075 1.7.35 2.869.744 3.881.413 1.056.956 1.95 1.85 2.837a7.82 7.82 0 0 0 2.831 1.844c1.019.394 2.181.669 3.881.744 1.706.075 2.25.094 6.594.094s4.888-.019 6.594-.094c1.7-.075 2.869-.35 3.881-.744 1.05-.406 1.944-.956 2.831-1.844s1.438-1.781 1.844-2.831c.394-1.019.669-2.181.744-3.881.075-1.706.094-2.25.094-6.594s-.019-4.887-.094-6.594c-.075-1.7-.35-2.869-.744-3.881a7.506 7.506 0 0 0-1.831-2.844A7.82 7.82 0 0 0 26.482.843C25.463.449 24.301.174 22.601.099c-1.712-.081-2.256-.1-6.6-.1z"/><path d="M16 7.781c-4.537 0-8.219 3.681-8.219 8.219s3.681 8.219 8.219 8.219 8.219-3.681 8.219-8.219A8.221 8.221 0 0 0 16 7.781zm0 13.55a5.331 5.331 0 1 1 0-10.663 5.331 5.331 0 0 1 0 10.663zM26.462 7.456a1.919 1.919 0 1 1-3.838 0 1.919 1.919 0 0 1 3.838 0z"/></symbol><symbol id="twitter" viewBox="0 0 32 32"><path d="M32 7.075a12.941 12.941 0 0 1-3.769 1.031 6.601 6.601 0 0 0 2.887-3.631 13.21 13.21 0 0 1-4.169 1.594A6.565 6.565 0 0 0 22.155 4a6.563 6.563 0 0 0-6.563 6.563c0 .512.056 1.012.169 1.494A18.635 18.635 0 0 1 2.23 5.195a6.56 6.56 0 0 0-.887 3.3 6.557 6.557 0 0 0 2.919 5.463 6.565 6.565 0 0 1-2.975-.819v.081a6.565 6.565 0 0 0 5.269 6.437 6.574 6.574 0 0 1-2.968.112 6.588 6.588 0 0 0 6.131 4.563 13.17 13.17 0 0 1-9.725 2.719 18.568 18.568 0 0 0 10.069 2.95c12.075 0 18.681-10.006 18.681-18.681 0-.287-.006-.569-.019-.85A13.216 13.216 0 0 0 32 7.076z"/></symbol><symbol id="item" viewBox="0 0 32 32"><path fill="#fff" style="fill:var(--color1,#fff);stroke:var(--color2,#f3848c)" stroke="#f3848c" stroke-width="1.333" d="M31.333 16c0 8.468-6.865 15.333-15.333 15.333S.667 24.468.667 16 7.532.667 16 .667 31.333 7.532 31.333 16z"/><path fill="#fff" style="fill:var(--color1,#fff)" d="M29.333 16c0 7.364-5.97 13.333-13.333 13.333S2.667 23.363 2.667 16C2.667 8.636 8.637 2.667 16 2.667S29.333 8.637 29.333 16z"/><path fill="none" stroke="#f3848c" style="stroke:var(--color2,#f3848c)" stroke-linecap="round" stroke-width=".667" d="M29 16c0 7.18-5.82 13-13 13S3 23.18 3 16 8.82 3 16 3s13 5.82 13 13z"/><path style="fill:var(--color3,#000)" d="M9.333 10.953a2.859 2.859 0 0 0 2.381 2.814v4.329a.48.48 0 0 0 .476.477h7.62a.476.476 0 0 0 .476-.477v-4.329a2.859 2.859 0 0 0 2.38-2.814 2.86 2.86 0 0 0-2.857-2.857h-1.078c-.603-.862-1.602-1.429-2.732-1.429s-2.129.566-2.732 1.429h-1.078a2.865 2.865 0 0 0-2.857 2.857zm3.333 6.191h6.668v.475h-6.668v-.475zm-.475-8.096h.616c-.093.309-.14.63-.14.952a.472.472 0 0 0 .476.476.48.48 0 0 0 .477-.476c0-1.313 1.068-2.381 2.381-2.381S18.382 8.687 18.382 10a.476.476 0 0 0 .953 0c0-.331-.05-.65-.141-.952h.616a1.906 1.906 0 0 1 1.348 3.25 1.91 1.91 0 0 1-1.344.56h-.003a.478.478 0 0 0-.478.478l.001.005v2.853h-6.668V13.337a.478.478 0 0 0-.477-.477h-.003a1.904 1.904 0 0 1 .004-3.809zm9.046 11.429H10.763a.472.472 0 0 0-.476.476.472.472 0 0 0 .476.476h10.474a.472.472 0 0 0 .476-.476.472.472 0 0 0-.476-.476zm0 1.429H10.763a.472.472 0 0 0-.476.476.472.472 0 0 0 .476.476h10.474a.472.472 0 0 0 .476-.476.472.472 0 0 0-.476-.476zm-2.381 1.441h-5.713a.472.472 0 0 0-.476.476.472.472 0 0 0 .476.476h5.713a.472.472 0 0 0 .476-.476.473.473 0 0 0-.476-.476z"/></symbol><symbol id="menu-close" viewBox="0 0 32 32"><path d="M28.614 1.13 16 13.744 3.386 1.13a1.594 1.594 0 0 0-2.207.049 1.596 1.596 0 0 0-.049 2.207L13.738 16 1.127 28.611a1.6 1.6 0 0 0-.029 2.284 1.579 1.579 0 0 0 1.147.468 1.616 1.616 0 0 0 1.137-.493L16 18.259l12.614 12.614a1.6 1.6 0 0 0 2.207-.049 1.596 1.596 0 0 0 .049-2.207L18.256 16.003 30.87 3.385a1.6 1.6 0 0 0 .029-2.284 1.579 1.579 0 0 0-1.147-.468 1.601 1.601 0 0 0-1.137.494v.003z"/></symbol><symbol id="menu" viewBox="0 0 60 32"><path d="M2 0h56a2 2 0 1 1 0 4H2a2 2 0 1 1 0-4zM2 14h56a2 2 0 1 1 0 4H2a2 2 0 1 1 0-4zM2 28h56a2 2 0 1 1 0 4H2a2 2 0 1 1 0-4z"/></symbol><symbol id="star" viewBox="0 0 32 32"><path d="m16 23 9 6-4-10 9-6H20L16 3l-4 10H2l9 6-4 10 9-6zm0-1.247L9.2 26.3l3.2-7.7L5.2 14h7.5L16 5.5l3.3 8.5h7.5l-7.2 4.6 3.2 7.7-6.8-4.547z"/></symbol><symbol id="star-empty" viewBox="0 0 32 32"><path d="m16 23-9 6 4-10-9-6h10l4-10 4 10h10l-9 6 4 10z"/></symbol><symbol id="full-rate" viewBox="0 0 181 32"><path fill="#edd501" style="fill:var(--color1,#edd501)" d="M14.732 3.903c.399-1.228 2.137-1.228 2.536 0l2.025 6.232c.178.549.69.921 1.268.921h6.552c1.292 0 1.829 1.653.784 2.412l-5.301 3.851a1.333 1.333 0 0 0-.484 1.491l2.025 6.232c.399 1.228-1.007 2.25-2.052 1.491l-5.301-3.851a1.334 1.334 0 0 0-1.567 0l-5.301 3.851c-1.045.759-2.451-.262-2.052-1.491l2.025-6.232a1.335 1.335 0 0 0-.484-1.491l-5.301-3.851c-1.045-.759-.508-2.412.784-2.412h6.552c.578 0 1.09-.372 1.268-.921l2.025-6.232zM164.065 3.903c.399-1.228 2.137-1.228 2.536 0l2.025 6.232c.179.549.689.921 1.268.921h6.552c1.292 0 1.828 1.653.784 2.412l-5.301 3.851a1.333 1.333 0 0 0-.484 1.491l2.024 6.232c.4 1.228-1.007 2.25-2.051 1.491l-5.301-3.851a1.336 1.336 0 0 0-1.568 0l-5.301 3.851c-1.044.759-2.451-.262-2.051-1.491l2.024-6.232a1.334 1.334 0 0 0-.484-1.491l-5.301-3.851c-1.044-.759-.508-2.412.784-2.412h6.552c.579 0 1.089-.372 1.268-.921l2.025-6.232zM126.732 3.903c.399-1.228 2.137-1.228 2.536 0l2.025 6.232c.178.549.69.921 1.268.921h6.552c1.292 0 1.828 1.653.784 2.412l-5.301 3.851a1.333 1.333 0 0 0-.484 1.491l2.024 6.232c.4 1.228-1.007 2.25-2.051 1.491l-5.302-3.851a1.334 1.334 0 0 0-1.567 0l-5.301 3.851c-1.045.759-2.451-.262-2.052-1.491l2.025-6.232a1.334 1.334 0 0 0-.484-1.491l-5.301-3.851c-1.045-.759-.508-2.412.784-2.412h6.552c.578 0 1.09-.372 1.268-.921l2.025-6.232zM89.399 3.903c.399-1.228 2.137-1.228 2.536 0l2.025 6.232c.178.549.69.921 1.268.921h6.552c1.292 0 1.829 1.653.784 2.412l-5.301 3.851a1.333 1.333 0 0 0-.484 1.491l2.025 6.232c.399 1.228-1.007 2.25-2.052 1.491l-5.301-3.851a1.334 1.334 0 0 0-1.567 0l-5.301 3.851c-1.045.759-2.451-.262-2.052-1.491l2.025-6.232a1.334 1.334 0 0 0-.484-1.491l-5.301-3.851c-1.045-.759-.508-2.412.784-2.412h6.552c.578 0 1.09-.372 1.268-.921L89.4 3.903zM52.065 3.903c.399-1.228 2.137-1.228 2.536 0l2.025 6.232c.178.549.69.921 1.268.921h6.552c1.292 0 1.829 1.653.784 2.412l-5.301 3.851a1.333 1.333 0 0 0-.484 1.491l2.025 6.232c.399 1.228-1.007 2.25-2.052 1.491l-5.301-3.851a1.334 1.334 0 0 0-1.567 0l-5.301 3.851c-1.045.759-2.451-.262-2.052-1.491l2.025-6.232a1.334 1.334 0 0 0-.484-1.491l-5.301-3.851c-1.045-.759-.508-2.412.784-2.412h6.552c.578 0 1.09-.372 1.268-.921l2.025-6.232z"/></symbol><symbol id="rate" viewBox="0 0 173 32"><path fill="#edd501" style="fill:var(--color1,#edd501)" d="M14.249 4.68c.383-1.179 2.052-1.179 2.435 0l1.908 5.872a1.28 1.28 0 0 0 1.217.884h6.174c1.24 0 1.756 1.587.752 2.316l-4.995 3.629a1.28 1.28 0 0 0-.465 1.431l1.908 5.872c.383 1.179-.967 2.16-1.97 1.431l-4.995-3.629a1.28 1.28 0 0 0-1.505 0l-4.995 3.629c-1.003.729-2.353-.252-1.97-1.431l1.908-5.872a1.28 1.28 0 0 0-.465-1.431l-4.995-3.629c-1.003-.729-.488-2.316.752-2.316h6.174c.555 0 1.046-.357 1.217-.884l1.908-5.872z"/><path fill="none" stroke="#edd501" style="stroke:var(--color1,#edd501)" stroke-width="1.28" d="M156.724 4.878c.192-.59 1.027-.59 1.217 0l1.908 5.872a1.92 1.92 0 0 0 1.825 1.327h6.175c.62 0 .878.793.376 1.158l-4.996 3.629a1.92 1.92 0 0 0-.696 2.147l1.907 5.872c.192.59-.483 1.08-.984.716l-4.996-3.629a1.92 1.92 0 0 0-2.257 0l-4.995 3.629c-.502.364-1.176-.126-.986-.716l1.908-5.872a1.92 1.92 0 0 0-.698-2.147l-4.995-3.629c-.502-.364-.244-1.158.376-1.158h6.173c.832 0 1.569-.536 1.827-1.327l1.907-5.872z"/><path fill="#edd501" style="fill:var(--color1,#edd501)" d="M120.649 4.68c.383-1.179 2.052-1.179 2.435 0l1.908 5.872a1.28 1.28 0 0 0 1.217.884h6.173c1.24 0 1.756 1.587.753 2.316l-4.995 3.629a1.28 1.28 0 0 0-.465 1.431l1.908 5.872c.384 1.179-.966 2.16-1.969 1.431l-4.995-3.629a1.28 1.28 0 0 0-1.505 0l-4.995 3.629c-1.003.729-2.353-.252-1.97-1.431l1.908-5.872a1.28 1.28 0 0 0-.465-1.431l-4.995-3.629c-1.003-.729-.488-2.316.752-2.316h6.174c.555 0 1.046-.357 1.217-.884l1.908-5.872zM85.183 4.68c.383-1.179 2.052-1.179 2.435 0l1.908 5.872a1.28 1.28 0 0 0 1.217.884h6.174c1.24 0 1.756 1.587.752 2.316l-4.995 3.629a1.28 1.28 0 0 0-.465 1.431l1.908 5.872c.383 1.179-.967 2.16-1.97 1.431l-4.995-3.629a1.28 1.28 0 0 0-1.505 0l-4.995 3.629c-1.003.729-2.353-.252-1.97-1.431l1.908-5.872a1.28 1.28 0 0 0-.465-1.431l-4.995-3.629c-1.003-.729-.488-2.316.752-2.316h6.174c.555 0 1.046-.357 1.217-.884l1.908-5.872zM49.716 4.68c.383-1.179 2.052-1.179 2.435 0l1.908 5.872a1.28 1.28 0 0 0 1.217.884h6.174c1.24 0 1.756 1.587.752 2.316l-4.995 3.629a1.28 1.28 0 0 0-.465 1.431l1.908 5.872c.383 1.179-.967 2.16-1.97 1.431l-4.995-3.629a1.28 1.28 0 0 0-1.505 0l-4.995 3.629c-1.003.729-2.353-.252-1.97-1.431l1.908-5.872a1.28 1.28 0 0 0-.465-1.431l-4.995-3.629c-1.003-.729-.488-2.316.752-2.316h6.174a1.28 1.28 0 0 0 1.217-.884l1.908-5.872z"/></symbol></defs></svg>