<svg aria-hidden="true" style="position: absolute; width: 0; height: 0; overflow: hidden;" version="1.1" xmlns="http://www.w3.org/2000/svg" xmlns:xlink="http://www.w3.org/1999/xlink">
<defs>
<symbol id="facebook" viewBox="0 0 32 32">
<path d="M19 6h5v-6h-5c-3.86 0-7 3.14-7 7v3h-4v6h4v16h6v-16h5l1-6h-6v-3c0-0.542 0.458-1 1-1z"></path>
</symbol>
<symbol id="instagram" viewBox="0 0 32 32">
<path d="M16 2.881c4.275 0 4.781 0.019 6.462 0.094 1.563 0.069 2.406 0.331 2.969 0.55 0.744 0.288 1.281 0.638 1.837 1.194 0.563 0.563 0.906 1.094 1.2 1.838 0.219 0.563 0.481 1.412 0.55 2.969 0.075 1.688 0.094 2.194 0.094 6.463s-0.019 4.781-0.094 6.463c-0.069 1.563-0.331 2.406-0.55 2.969-0.288 0.744-0.637 1.281-1.194 1.837-0.563 0.563-1.094 0.906-1.837 1.2-0.563 0.219-1.413 0.481-2.969 0.55-1.688 0.075-2.194 0.094-6.463 0.094s-4.781-0.019-6.463-0.094c-1.563-0.069-2.406-0.331-2.969-0.55-0.744-0.288-1.281-0.637-1.838-1.194-0.563-0.563-0.906-1.094-1.2-1.837-0.219-0.563-0.481-1.413-0.55-2.969-0.075-1.688-0.094-2.194-0.094-6.463s0.019-4.781 0.094-6.463c0.069-1.563 0.331-2.406 0.55-2.969 0.288-0.744 0.638-1.281 1.194-1.838 0.563-0.563 1.094-0.906 1.838-1.2 0.563-0.219 1.412-0.481 2.969-0.55 1.681-0.075 2.188-0.094 6.463-0.094zM16 0c-4.344 0-4.887 0.019-6.594 0.094-1.7 0.075-2.869 0.35-3.881 0.744-1.056 0.412-1.95 0.956-2.837 1.85-0.894 0.888-1.438 1.781-1.85 2.831-0.394 1.019-0.669 2.181-0.744 3.881-0.075 1.713-0.094 2.256-0.094 6.6s0.019 4.887 0.094 6.594c0.075 1.7 0.35 2.869 0.744 3.881 0.413 1.056 0.956 1.95 1.85 2.837 0.887 0.887 1.781 1.438 2.831 1.844 1.019 0.394 2.181 0.669 3.881 0.744 1.706 0.075 2.25 0.094 6.594 0.094s4.888-0.019 6.594-0.094c1.7-0.075 2.869-0.35 3.881-0.744 1.050-0.406 1.944-0.956 2.831-1.844s1.438-1.781 1.844-2.831c0.394-1.019 0.669-2.181 0.744-3.881 0.075-1.706 0.094-2.25 0.094-6.594s-0.019-4.887-0.094-6.594c-0.075-1.7-0.35-2.869-0.744-3.881-0.394-1.063-0.938-1.956-1.831-2.844-0.887-0.887-1.781-1.438-2.831-1.844-1.019-0.394-2.181-0.669-3.881-0.744-1.712-0.081-2.256-0.1-6.6-0.1v0z"></path>
<path d="M16 7.781c-4.537 0-8.219 3.681-8.219 8.219s3.681 8.219 8.219 8.219 8.219-3.681 8.219-8.219c0-4.537-3.681-8.219-8.219-8.219zM16 21.331c-2.944 0-5.331-2.387-5.331-5.331s2.387-5.331 5.331-5.331c2.944 0 5.331 2.387 5.331 5.331s-2.387 5.331-5.331 5.331z"></path>
<path d="M26.462 7.456c0 1.060-0.859 1.919-1.919 1.919s-1.919-0.859-1.919-1.919c0-1.060 0.859-1.919 1.919-1.919s1.919 0.859 1.919 1.919z"></path>
</symbol>
<symbol id="twitter" viewBox="0 0 32 32">
<path d="M32 7.075c-1.175 0.525-2.444 0.875-3.769 1.031 1.356-0.813 2.394-2.1 2.887-3.631-1.269 0.75-2.675 1.3-4.169 1.594-1.2-1.275-2.906-2.069-4.794-2.069-3.625 0-6.563 2.938-6.563 6.563 0 0.512 0.056 1.012 0.169 1.494-5.456-0.275-10.294-2.888-13.531-6.862-0.563 0.969-0.887 2.1-0.887 3.3 0 2.275 1.156 4.287 2.919 5.463-1.075-0.031-2.087-0.331-2.975-0.819 0 0.025 0 0.056 0 0.081 0 3.181 2.263 5.838 5.269 6.437-0.55 0.15-1.131 0.231-1.731 0.231-0.425 0-0.831-0.044-1.237-0.119 0.838 2.606 3.263 4.506 6.131 4.563-2.25 1.762-5.075 2.813-8.156 2.813-0.531 0-1.050-0.031-1.569-0.094 2.913 1.869 6.362 2.95 10.069 2.95 12.075 0 18.681-10.006 18.681-18.681 0-0.287-0.006-0.569-0.019-0.85 1.281-0.919 2.394-2.075 3.275-3.394z"></path>
</symbol>
<symbol id="list" viewBox="0 0 32 32">
<path fill="#fff" style="fill: var(--color1, #fff); stroke: var(--color2, #f3848c)" stroke="#f3848c" stroke-linejoin="miter" stroke-linecap="butt" stroke-miterlimit="4" stroke-width="1.3333" d="M31.333 16c0 8.468-6.865 15.333-15.333 15.333s-15.333-6.865-15.333-15.333c0-8.468 6.865-15.333 15.333-15.333s15.333 6.865 15.333 15.333z"></path>
<path fill="#fff" style="fill: var(--color1, #fff)" d="M29.333 16c0 7.364-5.97 13.333-13.333 13.333s-13.333-5.97-13.333-13.333c0-7.364 5.97-13.333 13.333-13.333s13.333 5.97 13.333 13.333z"></path>
<path fill="none" stroke="#f3848c" style="stroke: var(--color2, #f3848c)" stroke-linejoin="miter" stroke-linecap="round" stroke-miterlimit="4" stroke-width="0.6667" d="M29 16c0 7.18-5.82 13-13 13s-13-5.82-13-13c0-7.18 5.82-13 13-13s13 5.82 13 13z"></path>
<path fill="#000" style="fill: var(--color3, #000)" d="M9.333 10.953c0 1.413 1.031 2.586 2.381 2.814v4.329c0 0.126 0.050 0.247 0.139 0.337s0.21 0.14 0.337 0.14h7.62c0.126 0 0.247-0.050 0.337-0.14s0.139-0.21 0.139-0.337v-4.329c1.349-0.228 2.38-1.401 2.38-2.814 0-1.576-1.281-2.857-2.857-2.857h-1.078c-0.603-0.862-1.602-1.429-2.732-1.429s-2.129 0.566-2.732 1.429h-1.078c-0.758 0.001-1.484 0.302-2.019 0.838s-0.837 1.262-0.838 2.019zM12.666 17.144h6.668v0.475h-6.668v-0.475zM12.191 9.048h0.616c-0.093 0.309-0.14 0.63-0.14 0.952 0 0.126 0.050 0.247 0.139 0.337s0.21 0.139 0.337 0.139c0.126 0 0.247-0.050 0.337-0.139s0.14-0.21 0.14-0.337c0-1.313 1.068-2.381 2.381-2.381s2.381 1.068 2.381 2.381c0 0.126 0.050 0.247 0.14 0.337s0.21 0.139 0.337 0.139 0.247-0.050 0.337-0.139c0.089-0.089 0.139-0.21 0.139-0.337 0-0.331-0.050-0.65-0.141-0.952h0.616c1.051 0 1.905 0.854 1.905 1.905-0.001 0.504-0.201 0.988-0.557 1.345s-0.84 0.558-1.344 0.56l-0.003-0c-0.063-0-0.125 0.012-0.183 0.036s-0.11 0.059-0.155 0.104c-0.044 0.044-0.080 0.097-0.104 0.155s-0.036 0.12-0.036 0.183l0.001 0.005v2.853h-6.668v-2.855l0-0.002c0-0.063-0.012-0.125-0.036-0.183s-0.059-0.111-0.103-0.155c-0.044-0.044-0.097-0.079-0.155-0.103s-0.12-0.036-0.183-0.036l-0.003 0c-0.504-0.001-0.988-0.202-1.344-0.559s-0.557-0.841-0.557-1.345c0-1.051 0.854-1.905 1.905-1.905zM21.237 20.477h-10.474c-0.126 0-0.247 0.050-0.337 0.139s-0.139 0.21-0.139 0.337c0 0.126 0.050 0.247 0.139 0.337s0.21 0.139 0.337 0.139h10.474c0.126 0 0.247-0.050 0.337-0.139s0.139-0.21 0.139-0.337c0-0.126-0.050-0.247-0.139-0.337s-0.21-0.139-0.337-0.139zM21.237 21.906h-10.474c-0.126 0-0.247 0.050-0.337 0.139s-0.139 0.21-0.139 0.337c0 0.126 0.050 0.247 0.139 0.337s0.21 0.139 0.337 0.139h10.474c0.126 0 0.247-0.050 0.337-0.139s0.139-0.21 0.139-0.337c0-0.126-0.050-0.247-0.139-0.337s-0.21-0.139-0.337-0.139zM18.856 23.347h-5.713c-0.126 0-0.247 0.050-0.337 0.139s-0.139 0.21-0.139 0.337c0 0.126 0.050 0.247 0.139 0.337s0.21 0.139 0.337 0.139h5.713c0.126 0 0.247-0.050 0.337-0.139s0.139-0.21 0.139-0.337c0-0.126-0.050-0.247-0.139-0.337s-0.211-0.139-0.337-0.139z"></path>
</symbol>
<symbol id="menu-close" viewBox="0 0 32 32">
<path d="M28.614 1.13l-12.614 12.614-12.614-12.614c-0.303-0.278-0.702-0.427-1.113-0.418s-0.803 0.176-1.094 0.467c-0.291 0.291-0.458 0.683-0.467 1.094s0.141 0.81 0.418 1.113l12.608 12.614-12.611 12.611c-0.154 0.147-0.277 0.323-0.362 0.518s-0.13 0.405-0.133 0.618 0.037 0.424 0.117 0.621c0.080 0.197 0.199 0.376 0.349 0.527s0.329 0.27 0.526 0.35 0.408 0.121 0.621 0.118c0.213-0.002 0.423-0.047 0.618-0.132s0.372-0.208 0.519-0.361l12.618-12.611 12.614 12.614c0.303 0.278 0.702 0.428 1.113 0.418s0.803-0.176 1.094-0.467c0.291-0.291 0.458-0.683 0.467-1.094s-0.141-0.81-0.418-1.113l-12.614-12.614 12.614-12.618c0.154-0.147 0.277-0.323 0.362-0.518s0.13-0.405 0.133-0.618c0.003-0.213-0.037-0.424-0.117-0.621s-0.199-0.376-0.349-0.527c-0.15-0.151-0.329-0.27-0.526-0.35s-0.408-0.121-0.621-0.118-0.423 0.047-0.618 0.132c-0.195 0.085-0.372 0.208-0.519 0.362v0.003z"></path>
</symbol>
<symbol id="menu" viewBox="0 0 60 32">
<path d="M2 0h56c1.105 0 2 0.895 2 2s-0.895 2-2 2h-56c-1.105 0-2-0.895-2-2s0.895-2 2-2z"></path>
<path d="M2 14h56c1.105 0 2 0.895 2 2s-0.895 2-2 2h-56c-1.105 0-2-0.895-2-2s0.895-2 2-2z"></path>
<path d="M2 28h56c1.105 0 2 0.895 2 2s-0.895 2-2 2h-56c-1.105 0-2-0.895-2-2s0.895-2 2-2z"></path>
</symbol>
</defs>
</svg>
